HIERARCHY
ROOT SpineBase
{
  OFFSET 0.000000 0.000000 0.000000
  CHANNELS 6 Xposition Yposition Zposition Zrotation Xrotation Yrotation
  JOINT SpineMid
  {
    OFFSET 0.000000 32.568030 0.000000
    CHANNELS 3 Zrotation Xrotation Yrotation
    JOINT SpineShoulder
    {
      OFFSET 0.115946 24.168851 -0.716757
      CHANNELS 3 Zrotation Xrotation Yrotation
      JOINT Neck
      {
        OFFSET 0.052832 7.999378 -0.555991
        CHANNELS 3 Zrotation Xrotation Yrotation
        JOINT Head
        {
          OFFSET 5.607708 12.019441 4.954087
          CHANNELS 3 Zrotation Xrotation Yrotation
          End Site
          {
            OFFSET 0 0 0
          }
        }
      }
      JOINT ShoulderLeft
      {
        OFFSET -12.214565 -2.535313 -10.742789
        CHANNELS 3 Zrotation Xrotation Yrotation
        JOINT ElbowLeft
        {
          OFFSET -7.121511 -25.173989 -4.742814
          CHANNELS 3 Zrotation Xrotation Yrotation
          JOINT WristLeft
          {
            OFFSET -1.544017 -25.039725 -5.102326
            CHANNELS 3 Zrotation Xrotation Yrotation
            JOINT HandLeft
            {
              OFFSET -0.123594 -8.583688 -0.608314
              CHANNELS 3 Zrotation Xrotation Yrotation
              JOINT HandTipLeft
              {
                OFFSET 1.058099 -6.991764 -1.486851
                CHANNELS 3 Zrotation Xrotation Yrotation
                End Site
                {
                  OFFSET 0 0 0
                }
              }
              JOINT ThumbLeft
              {
                OFFSET -1.687346 -2.026059 -2.743501
                CHANNELS 3 Zrotation Xrotation Yrotation
                End Site
                {
                  OFFSET 0 0 0
                }
              }
            }
          }
        }
      }
      JOINT ShoulderRight
      {
        OFFSET 12.891946 -3.141170 12.712998
        CHANNELS 3 Zrotation Xrotation Yrotation
        JOINT ElbowRight
        {
          OFFSET -1.735549 -22.051930 8.199137
          CHANNELS 3 Zrotation Xrotation Yrotation
          JOINT WristRight
          {
            OFFSET 7.304749 -21.205592 -13.963574
            CHANNELS 3 Zrotation Xrotation Yrotation
            JOINT HandRight
            {
              OFFSET 5.385878 -0.062995 1.194483
              CHANNELS 3 Zrotation Xrotation Yrotation
              JOINT HandTipRight
              {
                OFFSET 4.173682 -3.395029 -2.123784
                CHANNELS 3 Zrotation Xrotation Yrotation
                End Site
                {
                  OFFSET 0 0 0
                }
              }
              JOINT ThumbRight
              {
                OFFSET -3.168573 0.035119 -7.262461
                CHANNELS 3 Zrotation Xrotation Yrotation
                End Site
                {
                  OFFSET 0 0 0
                }
              }
            }
          }
        }
      }
    }
  }
  JOINT HipLeft
  {
    OFFSET -5.056202 1.557326 -7.532651
    CHANNELS 3 Zrotation Xrotation Yrotation
    JOINT KneeLeft
    {
      OFFSET -10.614082 -33.635108 -3.731730
      CHANNELS 3 Zrotation Xrotation Yrotation
      JOINT AnkleLeft
      {
        OFFSET -8.417742 -38.273930 4.495751
        CHANNELS 3 Zrotation Xrotation Yrotation
        JOINT FootLeft
        {
          OFFSET 0.290876 -7.272334 -7.269451
          CHANNELS 3 Zrotation Xrotation Yrotation
          End Site
          {
            OFFSET 0 0 0
          }
        }
      }
    }
  }
  JOINT HipRight
  {
    OFFSET 5.571660 0.176234 0.438659
    CHANNELS 3 Zrotation Xrotation Yrotation
    JOINT KneeRight
    {
      OFFSET -3.041523 -36.502614 4.419850
      CHANNELS 3 Zrotation Xrotation Yrotation
      JOINT AnkleRight
      {
        OFFSET -5.918015 -35.854938 12.512099
        CHANNELS 3 Zrotation Xrotation Yrotation
        JOINT FootRight
        {
          OFFSET 1.692745 -7.920267 -5.254048
          CHANNELS 3 Zrotation Xrotation Yrotation
          End Site
          {
            OFFSET 0 0 0
          }
        }
      }
    }
  }
}
MOTION
Frames: 5
Frame Time: 0.033333
-26.191692 80.242877 347.516056 -2.604540 2.699213 -44.986466 -0.935383 -0.310527 44.916070 -0.373203 0.003158 -0.181099 -0.474396 -10.335233 5.079766 0.000000 0.000000 0.000000 -1.017812 0.701527 0.122468 7.103296 -2.878510 -0.046817 -1.200909 1.623672 0.375194 1.047543 -2.570223 -0.259146 0.000000 0.000000 0.000000 0.000000 0.000000 0.000000 33.939071 50.311223 -7.707304 33.160642 59.467735 -17.239298 86.914800 -83.575989 -176.408499 49.661949 9.529577 -56.495392 0.000000 0.000000 0.000000 0.000000 0.000000 0.000000 6.780760 -0.314815 45.578638 -1.469581 3.352219 -0.671898 -0.239794 -2.839764 -0.122531 0.000000 0.000000 0.000000 4.076957 2.025781 45.148057 -1.176797 -0.119217 -0.114904 0.422196 0.916674 -0.200307 0.000000 0.000000 0.000000
-26.263158 80.236715 347.483255 -2.937987 2.874741 -44.597411 -1.031831 -0.345157 44.523515 -0.358871 0.002685 -0.197955 0.303159 -11.405369 5.411431 0.000000 0.000000 0.000000 -0.946384 0.564796 0.191499 7.376422 -3.110749 -0.048985 -1.196864 2.494629 0.340936 0.921064 -2.036406 -0.034589 0.000000 0.000000 0.000000 0.000000 0.000000 0.000000 33.994348 49.264655 -6.958795 35.576367 61.885462 -19.995572 74.580679 -27.632301 141.285546 45.216508 57.134284 -77.961256 0.000000 0.000000 0.000000 0.000000 0.000000 0.000000 7.345143 -0.125180 45.183886 -1.680793 3.474529 -0.671378 -0.145820 -3.051688 -0.231002 0.000000 0.000000 0.000000 4.542605 2.090159 44.779044 -1.230550 -0.036124 -0.129179 0.351467 0.010903 -0.336862 0.000000 0.000000 0.000000
-26.329781 80.242568 347.449130 -3.283688 3.031768 -44.051852 -1.057235 -0.365624 43.977735 -0.334347 -0.007959 -0.211912 1.046052 -12.328355 5.711413 0.000000 0.000000 0.000000 -0.918002 0.498763 0.255791 7.692969 -3.289906 -0.061524 -0.922304 3.827337 0.278435 0.504176 -1.998817 0.214222 0.000000 0.000000 0.000000 0.000000 0.000000 0.000000 33.056084 46.982563 -5.559528 35.833469 64.944926 -21.530140 89.409891 -14.617501 133.994201 63.316516 68.129333 -93.008898 0.000000 0.000000 0.000000 0.000000 0.000000 0.000000 7.943370 0.095193 44.623946 -1.944052 3.557908 -0.654765 -0.159031 -3.104889 -0.238692 0.000000 0.000000 0.000000 5.005820 2.125744 44.251948 -1.312636 0.105371 -0.167569 0.473932 -0.985534 -0.549489 0.000000 0.000000 0.000000
-26.391562 80.263636 347.417316 -3.623418 3.166236 -43.440008 -1.009791 -0.377912 43.368468 -0.290419 -0.036578 -0.221669 1.573950 -12.950547 5.945118 0.000000 0.000000 0.000000 -0.984694 0.533781 0.314228 8.080119 -3.416259 -0.083437 -0.478515 4.073296 0.230990 -0.363160 -1.800349 0.349070 0.000000 0.000000 0.000000 0.000000 0.000000 0.000000 31.253539 43.873833 -3.942570 42.267684 68.260530 -27.363199 92.035267 -8.080989 131.221142 72.433134 68.450806 -103.922612 0.000000 0.000000 0.000000 0.000000 0.000000 0.000000 8.511896 0.313823 43.991727 -2.185075 3.570425 -0.620449 -0.273719 -2.588088 -0.159536 0.000000 0.000000 0.000000 5.432943 2.148145 43.655213 -1.320036 0.204430 -0.177297 0.343843 -1.563175 -0.581718 0.000000 0.000000 0.000000
-26.424740 80.287903 347.406818 -3.954597 3.309929 -42.811471 -0.987229 -0.377800 42.743513 -0.270369 -0.049039 -0.233489 2.402464 -13.731283 6.172746 0.000000 0.000000 0.000000 -1.052267 0.513766 0.377011 8.576252 -3.480782 -0.125799 0.405399 4.315930 0.147034 -1.286880 -2.651002 0.289231 0.000000 0.000000 0.000000 0.000000 0.000000 0.000000 28.876773 39.988586 -2.276387 54.296094 70.824247 -37.527856 93.990658 -4.698971 128.676571 76.699300 69.238393 -109.041082 0.000000 0.000000 0.000000 0.000000 0.000000 0.000000 9.032637 0.500280 43.339306 -2.381978 3.496704 -0.569558 -0.595582 -1.008787 0.146351 0.000000 0.000000 0.000000 5.802073 2.138160 43.035631 -1.249521 0.242317 -0.163349 0.010905 -1.941043 -0.482831 0.000000 0.000000 0.000000
